<svg id="Calque_1" data-name="Calque 1" xmlns="http://www.w3.org/2000/svg" viewBox="0 0 25 25"><defs><style>.cls-1{fill:#e6322d;}</style></defs><path class="cls-1" d="M21.68,22.11l-4.75,2.78c-.11-.07-.22-.13-.31-.2A48.12,48.12,0,0,1,12,21.38,31.71,31.71,0,0,1,5.1,13.83c-.84-1.32-1.9-3-1.77-4.61A2.62,2.62,0,0,1,5.25,6.59a3,3,0,0,1,1.66.13A13,13,0,0,0,13,7.54c-.09.68,0,1.52-.62,2a3.16,3.16,0,0,1-2.14.52,7.08,7.08,0,0,1-1.57-.46c-1.85-.51-1.12.82-1.12.82a24.07,24.07,0,0,0,14.13,11.7"/><path class="cls-1" d="M20.24,4.87l-1.35,3.2L17.13,8,18,3.65s1.76.09,2.29,1.22"/><path class="cls-1" d="M17.13,9l2.38,2.07a62.9,62.9,0,0,1-4.63,6.29L12.69,15.2A19.24,19.24,0,0,0,17.13,9"/><path class="cls-1" d="M17.44,2.51,16.2,8.71,13.93,8.6c.13-2.17.15-4.35.4-6.51a2.45,2.45,0,0,1,.06-.34c.07-.13.18-.15.42-.17a3.7,3.7,0,0,1,.88,0,2.14,2.14,0,0,1,1.75.93"/><path class="cls-1" d="M13.22.85c.09,0-.09,2.47-.09,2.65,0,1,0,2.1-.11,3.13-.53,0-1.06.07-1.59,0-.28,0-1.43,0-1.61-.2a1.85,1.85,0,0,1,0-.58c0-.61,0-1.21,0-1.83,0-.92,0-1.85,0-2.78A4.59,4.59,0,0,1,13.22.85"/><path class="cls-1" d="M11.34,22.22,9.18,25c-2.58-.4-6-2.78-6-2.78a26.79,26.79,0,0,0,5.36-2.69,20,20,0,0,0,2.78,2.69"/><path class="cls-1" d="M8.76,1.78l.11,4.54a6,6,0,0,1-2.58-.5L5.78,2.39a5.71,5.71,0,0,1,3-.61"/></svg>