<svg id="en" xmlns="http://www.w3.org/2000/svg" xmlns:xlink="http://www.w3.org/1999/xlink" viewBox="0 0 25 25"><defs><style>.cls-1{fill:none;}.cls-2{clip-path:url(#clip-path);}.cls-3{fill:url(#radial-gradient);}.cls-4{fill:#223c72;}.cls-5{fill:#efebe7;}.cls-6{fill:#ed3726;}.cls-7{fill:#2f3e67;}</style><clipPath id="clip-path"><path class="cls-1" d="M12.61,1.6a11.4,11.4,0,1,0,2.74.34,11.38,11.38,0,0,0-2.74-.34h0"/></clipPath><radialGradient id="radial-gradient" cx="-1975.83" cy="2000.25" r="0.06" gradientTransform="matrix(197.47, 0, 0, -197.47, 390175.18, 394997.7)" gradientUnits="userSpaceOnUse"><stop offset="0" stop-color="#fff"/><stop offset="0.78" stop-color="#fff"/><stop offset="0.82" stop-color="#f9f8f8"/><stop offset="0.88" stop-color="#e9e6e3"/><stop offset="0.94" stop-color="#cfc8c2"/><stop offset="1" stop-color="#b5aba1"/></radialGradient></defs><g class="cls-2"><rect class="cls-3" x="0.06" y="1.6" width="25.11" height="23.94"/></g><path class="cls-4" d="M1.57,10.25A11.38,11.38,0,1,1,9.88,24,11.38,11.38,0,0,1,1.57,10.25"/><path class="cls-5" d="M20.69,5,16.11,8V2.15c-.25-.08-.5-.15-.76-.21a11.25,11.25,0,0,0-6.26.22V8L4.53,5A11.44,11.44,0,0,0,2.06,8.72l1.21.81H1.78q-.12.35-.21.72a11.39,11.39,0,0,0,.24,6.3H3.3l-1.19.8a11.45,11.45,0,0,0,2.5,3.72l4.48-3V23.8c.26.09.52.16.79.23a11.32,11.32,0,0,0,6.23-.22V18.09l4.5,3a11.16,11.16,0,0,0,2.51-3.72l-1.22-.81h1.52c.09-.27.17-.55.24-.83a11.28,11.28,0,0,0-.2-6.19H21.93l1.23-.82A11.18,11.18,0,0,0,20.69,5"/><path class="cls-6" d="M7.34,9.53,3.12,6.72a9.26,9.26,0,0,0-.76,1.34l2.2,1.47ZM22.1,6.69a11.91,11.91,0,0,0-.93-1.22L16.11,8.83v.7h1.73Zm-19,12.6a10.15,10.15,0,0,0,.94,1.22l5-3.33v-.63H7.27ZM23.82,11H14.65V1.79a11.08,11.08,0,0,0-4.1,0V11H1.41a11.52,11.52,0,0,0,0,4.1h9.12v9.08a11.3,11.3,0,0,0,4.1,0V15.09H23.8a11.31,11.31,0,0,0,0-4.1m-5.88,5.56,4.14,2.75A11,11,0,0,0,22.85,18l-2.13-1.42Z"/><path class="cls-7" d="M16.11,3.34h0v.74a1.21,1.21,0,0,0,.07-.4.77.77,0,0,0-.07-.34"/></svg>