<svg xmlns="http://www.w3.org/2000/svg" viewBox="0 0 100 55"><defs><style>.cls-1{fill:#e6322d;}</style></defs><g id="Calque_2" data-name="Calque 2"><rect x="40.73" y="27.73" width="0.46" height="3.52"/><polygon points="41.83 27.73 42.44 27.73 43.68 30.68 43.68 30.68 43.68 27.73 44.14 27.73 44.14 31.28 43.5 31.28 42.29 28.4 42.29 28.4 42.29 31.28 41.83 31.28 41.83 27.73"/><polygon points="45.92 31.28 45.46 31.28 45.46 28.12 44.5 28.12 44.5 27.73 46.88 27.73 46.88 28.12 45.92 28.12 45.92 31.28"/><polygon points="47.23 27.73 49.15 27.73 49.15 28.12 47.7 28.12 47.7 29.22 49.08 29.22 49.08 29.61 47.7 29.61 47.7 30.89 49.23 30.89 49.23 31.28 47.23 31.28 47.23 27.73"/><path d="M50.15,29.33h.46c.29,0,.78,0,.78-.68,0-.35-.25-.57-.67-.57h-.57Zm-.46-1.6H50.9a.85.85,0,0,1,1,.89.81.81,0,0,1-.57.88h0a.62.62,0,0,1,.53.61l0,.6c0,.39.1.5.21.57H51.5a1.31,1.31,0,0,1-.14-.5l0-.53c0-.5-.32-.5-.57-.5h-.64v1.57h-.46V27.73Z"/><polygon points="52.42 27.73 53.03 27.73 54.27 30.68 54.27 30.68 54.27 27.73 54.73 27.73 54.73 31.28 54.1 31.28 52.89 28.4 52.89 28.4 52.89 31.28 52.42 31.28 52.42 27.73"/><path d="M56.12,29.93h1l-.49-1.71h0Zm.25-2.2H57l1,3.52h-.5l-.28-1H56.05l-.28,1h-.5Z"/><polygon points="59.11 31.28 58.65 31.28 58.65 28.12 57.72 28.12 57.72 27.73 60.07 27.73 60.07 28.12 59.11 28.12 59.11 31.28"/><rect x="60.42" y="27.73" width="0.46" height="3.52"/><path d="M62,29.5c0,.82.07,1.5.71,1.5s.71-.68.71-1.5S63.3,28,62.66,28,62,28.69,62,29.5m2,0c0,.89-.18,1.85-1.21,1.85s-1.21-1-1.21-1.85.18-1.84,1.21-1.84,1.21,1,1.21,1.84"/><polygon points="64.48 27.73 65.08 27.73 66.32 30.68 66.32 30.68 66.32 27.73 66.79 27.73 66.79 31.28 66.15 31.28 64.94 28.4 64.94 28.4 64.94 31.28 64.48 31.28 64.48 27.73"/><path d="M68.17,29.93h1l-.49-1.71h0Zm.22-2.2H69l1,3.52h-.54l-.28-1H68l-.28,1h-.5Z"/><polygon points="70.56 27.73 71.02 27.73 71.02 30.89 72.55 30.89 72.55 31.28 70.56 31.28 70.56 27.73"/><polygon points="74.89 31.28 74.43 31.28 74.43 28.12 73.47 28.12 73.47 27.73 75.82 27.73 75.82 28.12 74.89 28.12 74.89 31.28"/><path d="M76.67,29.33h.46c.29,0,.78,0,.78-.68,0-.35-.25-.57-.67-.57h-.57Zm-.46-1.6h1.21a.85.85,0,0,1,1,.89.81.81,0,0,1-.57.88h0a.62.62,0,0,1,.53.61l0,.6c0,.39.1.5.21.57H78a1.31,1.31,0,0,1-.14-.5l0-.53c0-.5-.32-.5-.57-.5h-.64v1.57h-.46V27.73Z"/><polygon points="78.94 27.73 80.9 27.73 80.9 28.12 79.41 28.12 79.41 29.22 80.79 29.22 80.79 29.61 79.41 29.61 79.41 30.89 80.94 30.89 80.94 31.28 78.94 31.28 78.94 27.73"/><path d="M82.14,29.93h1l-.49-1.71h0Zm.25-2.2H83l1,3.52h-.49l-.29-1H82.07l-.28,1h-.5Z"/><polygon points="85.13 31.28 84.67 31.28 84.67 28.12 83.74 28.12 83.74 27.73 86.09 27.73 86.09 28.12 85.13 28.12 85.13 31.28"/><polygon points="86.48 27.73 87.23 27.73 88.01 30.54 88.01 30.54 88.76 27.73 89.54 27.73 89.54 31.28 89.08 31.28 89.08 28.19 89.08 28.19 88.22 31.28 87.76 31.28 86.94 28.19 86.94 28.19 86.94 31.28 86.48 31.28 86.48 27.73"/><polygon points="90.18 27.73 92.13 27.73 92.13 28.12 90.64 28.12 90.64 29.22 92.03 29.22 92.03 29.61 90.64 29.61 90.64 30.89 92.2 30.89 92.2 31.28 90.18 31.28 90.18 27.73"/><polygon points="92.63 27.73 93.23 27.73 94.48 30.68 94.48 30.68 94.48 27.73 94.94 27.73 94.94 31.28 94.3 31.28 93.09 28.4 93.09 28.4 93.09 31.28 92.63 31.28 92.63 27.73"/><polygon points="96.72 31.28 96.26 31.28 96.26 28.12 95.33 28.12 95.33 27.73 97.68 27.73 97.68 28.12 96.72 28.12 96.72 31.28"/><path d="M41.23,35h.57a.61.61,0,0,0,.64-.68.6.6,0,0,0-.68-.64h-.53Zm-.5-1.71h1c.32,0,1.18,0,1.18,1a1,1,0,0,1-1.1,1h-.57v1.5h-.5Z"/><path d="M43.68,34.87h.46c.29,0,.78,0,.78-.67,0-.36-.24-.57-.67-.57h-.57Zm-.46-1.6h1.24c.61,0,1,.32,1,.89a.82.82,0,0,1-.61.89h0a.59.59,0,0,1,.54.6l0,.61c0,.39.11.5.21.57h-.56c-.08-.07-.11-.32-.15-.5l0-.53c0-.5-.32-.5-.57-.5h-.64v1.56h-.46Z"/><polygon points="46.13 33.27 48.12 33.27 48.12 33.66 46.59 33.66 46.59 34.77 48.02 34.77 48.02 35.16 46.59 35.16 46.59 36.44 48.19 36.44 48.19 36.83 46.13 36.83 46.13 33.27"/><path d="M49.23,35h.56a.61.61,0,0,0,.64-.68.59.59,0,0,0-.67-.64h-.53Zm-.47-1.71h1c.32,0,1.17,0,1.17,1a1,1,0,0,1-1.1,1h-.57v1.5H48.8V33.27Z"/><path d="M51.54,35.48h1l-.5-1.71h0Zm.24-2.21h.64l1,3.52H53l-.29-1H51.46l-.28,1h-.5Z"/><path d="M54.31,34.87h.46c.29,0,.78,0,.78-.67,0-.36-.25-.57-.67-.57h-.57Zm-.46-1.6h1.24c.61,0,1,.32,1,.89a.82.82,0,0,1-.61.89h0a.59.59,0,0,1,.54.6l0,.61c0,.39.11.5.21.57H55.7c-.08-.07-.11-.32-.15-.5l0-.53c0-.5-.32-.5-.57-.5h-.64v1.56h-.46Z"/><polygon points="56.76 33.27 58.75 33.27 58.75 33.66 57.26 33.66 57.26 34.77 58.68 34.77 58.68 35.16 57.26 35.16 57.26 36.44 58.82 36.44 58.82 36.83 56.76 36.83 56.76 33.27"/><path d="M59.93,36.47h.49c.82,0,.93-.78.93-1.42s0-1.42-.93-1.42h-.49Zm-.5-3.2h1c1.21,0,1.35.78,1.35,1.78s-.25,1.78-1.28,1.78H59.46V33.27Z"/><polygon points="62.27 33.27 62.88 33.27 64.16 36.22 64.16 36.22 64.16 33.27 64.65 33.27 64.65 36.83 63.98 36.83 62.77 33.95 62.73 33.95 62.73 36.83 62.27 36.83 62.27 33.27"/><polygon points="65.4 33.27 67.39 33.27 67.39 33.66 65.86 33.66 65.86 34.77 67.28 34.77 67.28 35.16 65.86 35.16 65.86 36.44 67.43 36.44 67.43 36.83 65.4 36.83 65.4 33.27"/><path d="M69.63,34.2c0-.36-.14-.64-.6-.64s-.64.21-.64.57c0,1,1.81.39,1.81,1.7,0,.82-.64,1.07-1.21,1.07-.89,0-1.17-.43-1.17-1.17h.46c0,.39,0,.81.71.81a.63.63,0,0,0,.68-.64c0-1-1.82-.42-1.82-1.7,0-.32.15-1,1.14-1,.75,0,1.07.32,1.07,1h-.43Z"/><path d="M72.47,34.2c0-.36-.14-.64-.6-.64a.56.56,0,0,0-.64.57c0,1,1.81.39,1.81,1.7,0,.82-.64,1.07-1.21,1.07-.88,0-1.17-.43-1.17-1.17h.46c0,.39,0,.81.71.81a.63.63,0,0,0,.68-.64c0-1-1.81-.42-1.81-1.7,0-.32.14-1,1.13-1,.75,0,1.07.32,1.07,1h-.43Z"/><path d="M77.42,35.62c0,.67-.32,1.28-1.18,1.28-1.1,0-1.24-1-1.24-1.85s.18-1.85,1.24-1.85a1,1,0,0,1,1.14,1.1h-.5c0-.39-.14-.74-.64-.74s-.74.67-.74,1.49.07,1.49.74,1.49.64-.49.68-.92Z"/><path d="M78.45,35.05c0,.82.07,1.49.74,1.49s.75-.67.75-1.49-.07-1.49-.75-1.49-.74.67-.74,1.49m2,0c0,.89-.18,1.85-1.25,1.85S78,35.94,78,35.05s.18-1.85,1.24-1.85,1.25,1,1.25,1.85"/><path d="M81.65,35.48h1l-.5-1.71h0Zm.24-2.21h.64l1,3.52h-.5l-.29-1H81.57l-.32,1h-.49Z"/><polygon points="83.96 33.27 84.42 33.27 84.42 36.44 85.98 36.44 85.98 36.83 83.96 36.83 83.96 33.27"/><rect x="86.48" y="33.27" width="0.46" height="3.52"/><polygon points="88.86 36.83 88.4 36.83 88.4 33.66 87.44 33.66 87.44 33.27 89.82 33.27 89.82 33.66 88.86 33.66 88.86 36.83"/><rect x="90.32" y="33.27" width="0.46" height="3.52"/><path d="M92,35.05c0,.82.07,1.49.75,1.49s.74-.67.74-1.49-.07-1.49-.74-1.49-.75.67-.75,1.49m2,0c0,.89-.18,1.85-1.24,1.85s-1.25-1-1.25-1.85.18-1.85,1.25-1.85,1.24,1,1.24,1.85"/><polygon points="94.69 33.27 95.3 33.27 96.58 36.22 96.58 36.22 96.58 33.27 97.04 33.27 97.04 36.83 96.4 36.83 95.15 33.95 95.15 33.95 95.15 36.83 94.69 36.83 94.69 33.27"/><path class="cls-1" d="M38.54,45.42l-9.31,5.46c-.22-.13-.43-.26-.61-.39a94.46,94.46,0,0,1-9-6.5A62.08,62.08,0,0,1,6,29.17c-1.65-2.59-3.73-5.89-3.47-9C2.76,17.78,3.8,15.44,6.31,15a6,6,0,0,1,3.25.26c5.46,2.43,12,1.61,12,1.61-.18,1.34-.05,3-1.22,3.9a6.28,6.28,0,0,1-4.2,1A15.29,15.29,0,0,1,13,20.86c-3.64-1-2.21,1.6-2.21,1.6,10.52,18.93,27.72,23,27.72,23"/><path class="cls-1" d="M35.73,11.58l-2.64,6.29-3.47-.18,1.6-8.49c.05,0,3.47.18,4.51,2.38"/><path class="cls-1" d="M29.62,19.69l4.68,4.07s-5.68,8.71-9.1,12.35l-4.29-4.25S27,26.4,29.62,19.69"/><path class="cls-1" d="M30.23,7,27.8,19.12l-4.46-.21c.26-4.25.3-8.54.78-12.78a3.13,3.13,0,0,1,.13-.65c.13-.26.34-.31.82-.35a7.7,7.7,0,0,1,1.73,0A4.23,4.23,0,0,1,30.23,7"/><path class="cls-1" d="M22,3.7c.17,0-.17,4.85-.17,5.2-.09,2-.09,4.11-.22,6.15-1,0-2.08.13-3.12.09-.56-.05-2.81,0-3.16-.39-.13-.18,0-.91,0-1.13-.05-1.21-.05-2.38-.09-3.59,0-1.82-.09-3.64-.09-5.46A8.93,8.93,0,0,1,22,3.7"/><path class="cls-1" d="M18.27,45.64,14,51.1C9,50.32,2.28,45.64,2.28,45.64c4.25-1.22,10.53-5.29,10.53-5.29,1,1.65,5.46,5.29,5.46,5.29"/><path class="cls-1" d="M13.2,5.52l.22,8.92s-3.86,0-5.07-1l-1-6.72A11.08,11.08,0,0,1,13.2,5.52"/><rect x="40.73" y="3.98" width="3.98" height="21.33"/><polygon points="53.31 7.36 47.63 7.36 47.63 3.98 63.02 3.98 63.02 7.36 57.3 7.36 57.3 25.34 53.31 25.34 53.31 7.36"/><path d="M69.88,13.86h1.39c2,0,3.8-.71,3.8-3.16s-1.74-3.34-3.8-3.34H69.88ZM65.9,4h5c4.33,0,8.28,1.35,8.28,6.43s-3.38,6.79-7.68,6.79H69.88v8.11h-4Z"/><path d="M97.25,25a19.83,19.83,0,0,1-4.51.67C86.3,25.7,81.82,22.25,81.82,15S86,3.62,92.74,3.62a12.67,12.67,0,0,1,4.51.89L97,8.1A7.72,7.72,0,0,0,92.67,7C88.58,7,86,10.34,86,14.72s2.53,7.6,6.76,7.6a10.27,10.27,0,0,0,4.37-.89Z"/><path d="M43.73,46.11h0l1.38-4.84h.81l1.44,4.84h0l1.37-4.75h1.42l-2.36,7.11h-1l-1.39-4.56h0l-1.31,4.56h-1L40.9,41.36h1.42Z"/><path d="M51.92,42.54v1.54h2.16v1.18H51.92v1.89h2.24v1.18h-3.6v-7h3.6v1.18Z"/><path d="M58.35,42.89a1.25,1.25,0,0,0-1-.57.82.82,0,0,0-.85.79c0,1.17,2.76.68,2.76,3a2.2,2.2,0,0,1-2.29,2.38,2.47,2.47,0,0,1-2.15-1.36l.88-.85a1.45,1.45,0,0,0,1.26,1,.93.93,0,0,0,.89-1c0-.72-.66-.92-1.21-1.13-.89-.37-1.55-.83-1.55-1.91a2,2,0,0,1,2-2.09A2.89,2.89,0,0,1,59,42Z"/><path d="M62.2,48.33H60.84V42.54H59.43V41.36H63.6v1.18H62.2Z"/><path d="M68.19,46.86l-.57,1.47H66.19l2.72-7.16h1l2.64,7.16H71.15l-.53-1.47Zm1.18-3.64h0l-.77,2.53h1.66Z"/><path d="M74.38,42.54v1.54h2v1.18h-2v3.07H73v-7h3.46v1.18Z"/><path d="M82,48.33H80.37l-1.7-2.81h0v2.81H77.3v-7h1.84c1.37,0,2.33.61,2.33,2.1A1.85,1.85,0,0,1,80,45.39Zm-3.35-3.76h.17c.75,0,1.28-.23,1.28-1.08s-.55-1-1.27-1h-.18Z"/><path d="M83.81,48.33H82.45v-7h1.36Z"/><path d="M89.46,43.21a2,2,0,0,0-1.53-.74,2.4,2.4,0,0,0,0,4.75,2.14,2.14,0,0,0,1.54-.74V48.1a3.67,3.67,0,0,1-1.58.41,3.51,3.51,0,0,1-3.41-3.61,3.55,3.55,0,0,1,3.44-3.73,3.23,3.23,0,0,1,1.55.41Z"/><path d="M91.78,46.86l-.57,1.47H89.77l2.72-7.16h1.06l2.64,7.16H94.74l-.54-1.47ZM93,43.22h0l-.77,2.53h1.65Z"/></g></svg>