<svg id="Calque_1" data-name="Calque 1" xmlns="http://www.w3.org/2000/svg" viewBox="0 0 100 55"><defs><style>.cls-1{fill:#fff;}.cls-2{fill:#e6322d;}</style></defs><rect class="cls-1" x="41.04" y="29.93" width="0.46" height="3.52"/><polygon class="cls-1" points="42.14 29.93 42.74 29.93 43.99 32.88 43.99 32.88 43.99 29.93 44.45 29.93 44.45 33.48 43.81 33.48 42.6 30.61 42.6 30.61 42.6 33.48 42.14 33.48 42.14 29.93"/><polygon class="cls-1" points="46.23 33.48 45.77 33.48 45.77 30.32 44.8 30.32 44.8 29.93 47.19 29.93 47.19 30.32 46.23 30.32 46.23 33.48"/><polygon class="cls-1" points="47.54 29.93 49.46 29.93 49.46 30.32 48.01 30.32 48.01 31.42 49.39 31.42 49.39 31.81 48.01 31.81 48.01 33.09 49.53 33.09 49.53 33.48 47.54 33.48 47.54 29.93"/><path class="cls-1" d="M50.46,31.53h.46c.28,0,.78,0,.78-.68,0-.35-.25-.56-.67-.56h-.57ZM50,29.93h1.2a.84.84,0,0,1,1,.89.82.82,0,0,1-.56.89h0a.61.61,0,0,1,.53.6l0,.61c0,.39.11.49.22.57h-.57a1.36,1.36,0,0,1-.14-.5l0-.54c0-.49-.32-.49-.57-.49h-.64v1.56H50V29.93Z"/><polygon class="cls-1" points="52.73 29.93 53.34 29.93 54.58 32.88 54.58 32.88 54.58 29.93 55.04 29.93 55.04 33.48 54.4 33.48 53.2 30.61 53.2 30.61 53.2 33.48 52.73 33.48 52.73 29.93"/><path class="cls-1" d="M56.43,32.13h1l-.5-1.7h0Zm.25-2.2h.64l1,3.52h-.5l-.28-1H56.36l-.29,1h-.49Z"/><polygon class="cls-1" points="59.42 33.48 58.95 33.48 58.95 30.32 58.03 30.32 58.03 29.93 60.38 29.93 60.38 30.32 59.42 30.32 59.42 33.48"/><rect class="cls-1" x="60.73" y="29.93" width="0.46" height="3.52"/><path class="cls-1" d="M62.26,31.71c0,.82.07,1.49.71,1.49s.71-.67.71-1.49-.07-1.5-.71-1.5-.71.68-.71,1.5m2,0c0,.89-.18,1.85-1.21,1.85s-1.21-1-1.21-1.85S62,29.86,63,29.86s1.21,1,1.21,1.85"/><polygon class="cls-1" points="64.78 29.93 65.39 29.93 66.63 32.88 66.63 32.88 66.63 29.93 67.09 29.93 67.09 33.48 66.45 33.48 65.25 30.61 65.25 30.61 65.25 33.48 64.78 33.48 64.78 29.93"/><path class="cls-1" d="M68.48,32.13h1l-.5-1.7h0Zm.21-2.2h.64l1,3.52h-.54l-.28-1H68.34l-.29,1h-.49Z"/><polygon class="cls-1" points="70.86 29.93 71.33 29.93 71.33 33.09 72.85 33.09 72.85 33.48 70.86 33.48 70.86 29.93"/><polygon class="cls-1" points="75.2 33.48 74.74 33.48 74.74 30.32 73.78 30.32 73.78 29.93 76.12 29.93 76.12 30.32 75.2 30.32 75.2 33.48"/><path class="cls-1" d="M77,31.53h.46c.28,0,.78,0,.78-.68,0-.35-.25-.56-.67-.56H77Zm-.46-1.6h1.2a.84.84,0,0,1,1,.89.82.82,0,0,1-.57.89h0a.62.62,0,0,1,.54.6l0,.61c0,.39.11.49.22.57h-.57a1.36,1.36,0,0,1-.14-.5l0-.54c0-.49-.32-.49-.57-.49h-.64v1.56h-.46V29.93Z"/><polygon class="cls-1" points="79.25 29.93 81.21 29.93 81.21 30.32 79.71 30.32 79.71 31.42 81.1 31.42 81.1 31.81 79.71 31.81 79.71 33.09 81.24 33.09 81.24 33.48 79.25 33.48 79.25 29.93"/><path class="cls-1" d="M82.45,32.13h1l-.5-1.7h0Zm.25-2.2h.64l1,3.52h-.5l-.28-1H82.38l-.28,1h-.5Z"/><polygon class="cls-1" points="85.44 33.48 84.98 33.48 84.98 30.32 84.05 30.32 84.05 29.93 86.4 29.93 86.4 30.32 85.44 30.32 85.44 33.48"/><polygon class="cls-1" points="86.79 29.93 87.53 29.93 88.32 32.74 88.32 32.74 89.06 29.93 89.85 29.93 89.85 33.48 89.38 33.48 89.38 30.39 89.38 30.39 88.53 33.48 88.07 33.48 87.25 30.39 87.25 30.39 87.25 33.48 86.79 33.48 86.79 29.93"/><polygon class="cls-1" points="90.49 29.93 92.44 29.93 92.44 30.32 90.95 30.32 90.95 31.42 92.33 31.42 92.33 31.81 90.95 31.81 90.95 33.09 92.51 33.09 92.51 33.48 90.49 33.48 90.49 29.93"/><polygon class="cls-1" points="92.94 29.93 93.54 29.93 94.79 32.88 94.79 32.88 94.79 29.93 95.25 29.93 95.25 33.48 94.61 33.48 93.4 30.61 93.4 30.61 93.4 33.48 92.94 33.48 92.94 29.93"/><polygon class="cls-1" points="97.03 33.48 96.56 33.48 96.56 30.32 95.64 30.32 95.64 29.93 97.99 29.93 97.99 30.32 97.03 30.32 97.03 33.48"/><path class="cls-1" d="M41.53,37.18h.57a.6.6,0,0,0,.64-.67.59.59,0,0,0-.67-.64h-.54ZM41,35.48h1c.32,0,1.18,0,1.18,1a1,1,0,0,1-1.11,1h-.57V39H41Z"/><path class="cls-1" d="M44,37.08h.46c.28,0,.78,0,.78-.68,0-.36-.25-.57-.67-.57H44Zm-.46-1.6h1.24c.6,0,1,.32,1,.88a.81.81,0,0,1-.61.89h0a.59.59,0,0,1,.53.61l0,.6c0,.39.11.5.21.57h-.57a1.52,1.52,0,0,1-.14-.5l0-.53c0-.5-.32-.5-.57-.5H44v1.57h-.46Z"/><polygon class="cls-1" points="46.44 35.48 48.43 35.48 48.43 35.87 46.9 35.87 46.9 36.97 48.33 36.97 48.33 37.36 46.9 37.36 46.9 38.64 48.5 38.64 48.5 39.03 46.44 39.03 46.44 35.48"/><path class="cls-1" d="M49.53,37.18h.57a.6.6,0,0,0,.64-.67.59.59,0,0,0-.67-.64h-.54Zm-.46-1.7h1c.32,0,1.17,0,1.17,1a1,1,0,0,1-1.1,1h-.57V39h-.46V35.48Z"/><path class="cls-1" d="M51.84,37.68h1L52.38,36h0Zm.25-2.2h.64l1,3.52h-.49L53,38H51.77l-.28,1H51Z"/><path class="cls-1" d="M54.62,37.08h.46c.28,0,.78,0,.78-.68,0-.36-.25-.57-.67-.57h-.57Zm-.47-1.6H55.4a.87.87,0,0,1,1,.88.8.8,0,0,1-.6.89h0a.59.59,0,0,1,.53.61l0,.6c0,.39.11.5.21.57H56a1.52,1.52,0,0,1-.14-.5l0-.53c0-.5-.32-.5-.57-.5h-.64v1.57h-.47Z"/><polygon class="cls-1" points="57.07 35.48 59.06 35.48 59.06 35.87 57.57 35.87 57.57 36.97 58.99 36.97 58.99 37.36 57.57 37.36 57.57 38.64 59.13 38.64 59.13 39.03 57.07 39.03 57.07 35.48"/><path class="cls-1" d="M60.23,38.68h.5c.82,0,.93-.79.93-1.43s0-1.42-.93-1.42h-.5Zm-.49-3.2h1c1.21,0,1.35.78,1.35,1.77S61.87,39,60.84,39H59.77V35.48Z"/><polygon class="cls-1" points="62.58 35.48 63.18 35.48 64.46 38.43 64.46 38.43 64.46 35.48 64.96 35.48 64.96 39.03 64.29 39.03 63.08 36.15 63.04 36.15 63.04 39.03 62.58 39.03 62.58 35.48"/><polygon class="cls-1" points="65.71 35.48 67.7 35.48 67.7 35.87 66.17 35.87 66.17 36.97 67.59 36.97 67.59 37.36 66.17 37.36 66.17 38.64 67.73 38.64 67.73 39.03 65.71 39.03 65.71 35.48"/><path class="cls-1" d="M69.94,36.4c0-.36-.14-.64-.61-.64a.56.56,0,0,0-.64.57c0,1,1.82.39,1.82,1.71,0,.81-.64,1.06-1.21,1.06-.89,0-1.17-.42-1.17-1.17h.46c0,.39,0,.82.71.82a.62.62,0,0,0,.67-.64c0-1-1.81-.43-1.81-1.71,0-.32.14-1,1.14-1,.75,0,1.07.32,1.07,1h-.43Z"/><path class="cls-1" d="M72.78,36.4c0-.36-.14-.64-.6-.64a.56.56,0,0,0-.64.57c0,1,1.81.39,1.81,1.71,0,.81-.64,1.06-1.21,1.06-.89,0-1.17-.42-1.17-1.17h.46c0,.39,0,.82.71.82a.63.63,0,0,0,.68-.64c0-1-1.82-.43-1.82-1.71,0-.32.15-1,1.14-1,.75,0,1.07.32,1.07,1h-.43Z"/><path class="cls-1" d="M77.72,37.82c0,.68-.32,1.28-1.17,1.28-1.1,0-1.24-1-1.24-1.85s.17-1.85,1.24-1.85a1,1,0,0,1,1.14,1.11h-.5c0-.39-.14-.75-.64-.75s-.75.68-.75,1.49.08,1.5.75,1.5.64-.5.68-.93Z"/><path class="cls-1" d="M78.75,37.25c0,.82.08,1.5.75,1.5s.75-.68.75-1.5-.07-1.49-.75-1.49-.75.68-.75,1.49m2,0c0,.89-.18,1.85-1.25,1.85s-1.24-1-1.24-1.85.17-1.85,1.24-1.85,1.25,1,1.25,1.85"/><path class="cls-1" d="M82,37.68h1L82.49,36h0Zm.25-2.2h.64l1,3.52h-.49l-.29-1H81.88l-.32,1h-.49Z"/><polygon class="cls-1" points="84.27 35.48 84.73 35.48 84.73 38.64 86.29 38.64 86.29 39.03 84.27 39.03 84.27 35.48"/><rect class="cls-1" x="86.79" y="35.48" width="0.46" height="3.52"/><polygon class="cls-1" points="89.17 39.03 88.71 39.03 88.71 35.87 87.75 35.87 87.75 35.48 90.13 35.48 90.13 35.87 89.17 35.87 89.17 39.03"/><rect class="cls-1" x="90.63" y="35.48" width="0.46" height="3.52"/><path class="cls-1" d="M92.3,37.25c0,.82.07,1.5.75,1.5s.74-.68.74-1.5-.07-1.49-.74-1.49-.75.68-.75,1.49m2,0c0,.89-.18,1.85-1.24,1.85s-1.25-1-1.25-1.85S92,35.4,93.05,35.4s1.24,1,1.24,1.85"/><polygon class="cls-1" points="95 35.48 95.61 35.48 96.89 38.43 96.89 38.43 96.89 35.48 97.35 35.48 97.35 39.03 96.71 39.03 95.46 36.15 95.46 36.15 95.46 39.03 95 39.03 95 35.48"/><path class="cls-2" d="M38.85,47.62l-9.31,5.46a6.48,6.48,0,0,1-.61-.39,94.46,94.46,0,0,1-9-6.5A62,62,0,0,1,6.32,31.38c-1.65-2.6-3.73-5.89-3.47-9.06.22-2.34,1.26-4.68,3.77-5.15a5.81,5.81,0,0,1,3.25.26c5.46,2.42,12,1.6,12,1.6-.18,1.34,0,3-1.22,3.9a6.22,6.22,0,0,1-4.2,1,15.2,15.2,0,0,1-3.08-.91c-3.64-1-2.21,1.6-2.21,1.6,10.53,18.94,27.73,23,27.73,23"/><path class="cls-2" d="M36,13.79l-2.65,6.28-3.46-.17,1.6-8.49c0-.05,3.47.17,4.51,2.38"/><path class="cls-2" d="M29.93,21.89,34.61,26s-5.68,8.71-9.1,12.35l-4.29-4.25s6.06-5.45,8.71-12.17"/><path class="cls-2" d="M30.53,9.15,28.11,21.33l-4.46-.22c.26-4.25.3-8.53.78-12.78a3.29,3.29,0,0,1,.13-.65c.13-.26.34-.3.82-.35a8.34,8.34,0,0,1,1.73,0,4.2,4.2,0,0,1,3.42,1.82"/><path class="cls-2" d="M22.26,5.9c.17,0-.17,4.86-.17,5.2-.09,2-.09,4.12-.22,6.15-1,0-2.08.13-3.12.09-.56,0-2.82,0-3.16-.39-.13-.17-.05-.91-.05-1.13,0-1.21,0-2.38-.08-3.59-.05-1.82-.09-3.64-.09-5.46a9,9,0,0,1,6.89-.87"/><path class="cls-2" d="M18.58,47.84,14.33,53.3c-5.07-.78-11.74-5.46-11.74-5.46,4.25-1.21,10.53-5.28,10.53-5.28,1,1.64,5.46,5.28,5.46,5.28"/><path class="cls-2" d="M13.51,7.72l.21,8.93s-3.85,0-5.06-1l-1-6.71a11.11,11.11,0,0,1,5.85-1.22"/><rect class="cls-1" x="41.04" y="6.18" width="3.98" height="21.33"/><polygon class="cls-1" points="53.62 9.56 47.93 9.56 47.93 6.18 63.33 6.18 63.33 9.56 57.6 9.56 57.6 27.55 53.62 27.55 53.62 9.56"/><path class="cls-1" d="M70.19,16.07h1.38c2,0,3.81-.71,3.81-3.17s-1.74-3.34-3.81-3.34H70.19Zm-4-9.89h5c4.34,0,8.29,1.35,8.29,6.44s-3.38,6.79-7.68,6.79H70.19v8.1h-4Z"/><path class="cls-1" d="M97.56,27.23a19.83,19.83,0,0,1-4.51.67c-6.44,0-10.92-3.44-10.92-10.66S86.29,5.83,93.05,5.83a12.45,12.45,0,0,1,4.51.89l-.28,3.59A7.66,7.66,0,0,0,93,9.17c-4.08,0-6.68,3.38-6.68,7.75s2.52,7.61,6.76,7.61a10.43,10.43,0,0,0,4.37-.89Z"/><path class="cls-1" d="M44,48.31h0l1.38-4.84h.81l1.44,4.84h0l1.37-4.75H50.5l-2.36,7.11h-1l-1.38-4.56h0l-1.31,4.56h-1l-2.22-7.11h1.42Z"/><path class="cls-1" d="M52.23,44.75v1.53h2.16v1.18H52.23v1.89h2.24v1.18h-3.6v-7h3.6v1.19Z"/><path class="cls-1" d="M58.66,45.1a1.27,1.27,0,0,0-1-.58.84.84,0,0,0-.85.79c0,1.17,2.77.68,2.77,3a2.21,2.21,0,0,1-2.29,2.39,2.48,2.48,0,0,1-2.15-1.36L56,48.5a1.42,1.42,0,0,0,1.26,1,.93.93,0,0,0,.89-1c0-.72-.66-.93-1.21-1.14-.9-.37-1.55-.82-1.55-1.9a2,2,0,0,1,2-2.09,2.88,2.88,0,0,1,1.91.77Z"/><path class="cls-1" d="M62.5,50.53H61.14V44.75h-1.4V43.56h4.17v1.19H62.5Z"/><path class="cls-1" d="M68.5,49.06l-.57,1.47H66.5l2.71-7.15h1.06l2.64,7.15H71.46l-.54-1.47Zm1.18-3.64h0L68.89,48h1.65Z"/><path class="cls-1" d="M74.68,44.75v1.53h2v1.18h-2v3.07H73.33v-7h3.45v1.19Z"/><path class="cls-1" d="M82.32,50.53H80.67L79,47.72h0v2.81H77.6v-7h1.85c1.37,0,2.33.61,2.33,2.1a1.83,1.83,0,0,1-1.43,1.93ZM79,46.77h.18c.75,0,1.28-.22,1.28-1.07s-.55-1-1.27-1H79Z"/><path class="cls-1" d="M84.12,50.53H82.76v-7h1.36Z"/><path class="cls-1" d="M89.77,45.41a2,2,0,0,0-1.53-.74,2.4,2.4,0,0,0,0,4.75,2.1,2.1,0,0,0,1.54-.74V50.3a3.69,3.69,0,0,1-1.58.42,3.68,3.68,0,0,1,0-7.34,3.22,3.22,0,0,1,1.55.4Z"/><path class="cls-1" d="M92.09,49.06l-.58,1.47H90.08l2.72-7.15h1l2.65,7.15H95.05l-.54-1.47Zm1.17-3.64h0L92.48,48h1.65Z"/></svg>