<svg id="Calque_1" data-name="Calque 1" xmlns="http://www.w3.org/2000/svg" viewBox="0 0 142.87 66.17"><defs><style>.cls-1{fill:#e6322d;}</style></defs><rect x="56.66" y="38.07" width="0.7" height="5.33"/><polygon points="58.33 38.07 59.24 38.07 61.13 42.53 61.13 42.53 61.13 38.07 61.83 38.07 61.83 43.45 60.86 43.45 59.03 39.09 59.03 39.09 59.03 43.45 58.33 43.45 58.33 38.07"/><polygon points="64.52 43.45 63.82 43.45 63.82 38.66 62.37 38.66 62.37 38.07 65.97 38.07 65.97 38.66 64.52 38.66 64.52 43.45"/><polygon points="66.51 38.07 69.42 38.07 69.42 38.66 67.21 38.66 67.21 40.33 69.31 40.33 69.31 40.92 67.21 40.92 67.21 42.85 69.52 42.85 69.52 43.45 66.51 43.45 66.51 38.07"/><path d="M74.76,44.12h.7c.43,0,1.19,0,1.19-1,0-.54-.38-.86-1-.86h-.86Zm-.7-2.42h1.83a1.28,1.28,0,0,1,1.46,1.35,1.24,1.24,0,0,1-.86,1.34h0a.93.93,0,0,1,.8.92l.06.91c.05.6.16.76.32.86h-.86a2.1,2.1,0,0,1-.22-.75l0-.81c-.05-.75-.49-.75-.86-.75h-1v2.37H74V41.7Z" transform="translate(-3.84 -3.64)"/><polygon points="74.37 38.07 75.28 38.07 77.17 42.53 77.17 42.53 77.17 38.07 77.86 38.07 77.86 43.45 76.9 43.45 75.07 39.09 75.07 39.09 75.07 43.45 74.37 43.45 74.37 38.07"/><path d="M83.8,45h1.56l-.75-2.58h0Zm.38-3.34h1L86.71,47H86l-.43-1.45H83.7L83.27,47h-.76Z" transform="translate(-3.84 -3.64)"/><polygon points="84.48 43.45 83.78 43.45 83.78 38.66 82.39 38.66 82.39 38.07 85.94 38.07 85.94 38.66 84.48 38.66 84.48 43.45"/><rect x="86.48" y="38.07" width="0.7" height="5.33"/><path d="M92.63,44.39c0,1.24.11,2.26,1.08,2.26s1.07-1,1.07-2.26-.11-2.26-1.07-2.26-1.08,1-1.08,2.26m3,0c0,1.35-.27,2.8-1.83,2.8s-1.83-1.45-1.83-2.8.27-2.8,1.83-2.8,1.83,1.46,1.83,2.8" transform="translate(-3.84 -3.64)"/><polygon points="92.61 38.07 93.53 38.07 95.41 42.53 95.41 42.53 95.41 38.07 96.11 38.07 96.11 43.45 95.14 43.45 93.31 39.09 93.31 39.09 93.31 43.45 92.61 43.45 92.61 38.07"/><path d="M102.05,45h1.56l-.76-2.58h0Zm.32-3.34h1L104.9,47h-.81l-.43-1.45h-1.83L101.4,47h-.75Z" transform="translate(-3.84 -3.64)"/><polygon points="101.81 38.07 102.51 38.07 102.51 42.85 104.83 42.85 104.83 43.45 101.81 43.45 101.81 38.07"/><polygon points="108.38 43.45 107.68 43.45 107.68 38.66 106.23 38.66 106.23 38.07 109.78 38.07 109.78 38.66 108.38 38.66 108.38 43.45"/><path d="M114.91,44.12h.7c.43,0,1.18,0,1.18-1,0-.54-.37-.86-1-.86h-.86Zm-.7-2.42H116a1.28,1.28,0,0,1,1.45,1.35,1.23,1.23,0,0,1-.86,1.34h0a.94.94,0,0,1,.81.92l0,.91c.06.6.16.76.33.86H117a2.12,2.12,0,0,1-.21-.75l0-.81c-.06-.75-.49-.75-.87-.75h-1v2.37h-.7V41.7Z" transform="translate(-3.84 -3.64)"/><polygon points="114.51 38.07 117.47 38.07 117.47 38.66 115.21 38.66 115.21 40.33 117.31 40.33 117.31 40.92 115.21 40.92 115.21 42.85 117.53 42.85 117.53 43.45 114.51 43.45 114.51 38.07"/><path d="M123.2,45h1.56L124,42.46h0Zm.37-3.34h1L126.1,47h-.75l-.43-1.45h-1.83L122.66,47h-.75Z" transform="translate(-3.84 -3.64)"/><polygon points="123.88 43.45 123.18 43.45 123.18 38.66 121.78 38.66 121.78 38.07 125.33 38.07 125.33 38.66 123.88 38.66 123.88 43.45"/><polygon points="125.92 38.07 127.05 38.07 128.24 42.32 128.24 42.32 129.37 38.07 130.55 38.07 130.55 43.45 129.85 43.45 129.85 38.77 129.85 38.77 128.56 43.45 127.86 43.45 126.62 38.77 126.62 38.77 126.62 43.45 125.92 43.45 125.92 38.07"/><polygon points="131.52 38.07 134.48 38.07 134.48 38.66 132.22 38.66 132.22 40.33 134.32 40.33 134.32 40.92 132.22 40.92 132.22 42.85 134.59 42.85 134.59 43.45 131.52 43.45 131.52 38.07"/><polygon points="135.23 38.07 136.15 38.07 138.03 42.53 138.03 42.53 138.03 38.07 138.73 38.07 138.73 43.45 137.76 43.45 135.93 39.09 135.93 39.09 135.93 43.45 135.23 43.45 135.23 38.07"/><polygon points="141.42 43.45 140.72 43.45 140.72 38.66 139.32 38.66 139.32 38.07 142.87 38.07 142.87 38.66 141.42 38.66 141.42 43.45"/><path d="M61.26,52.68h.86a.92.92,0,0,0,1-1,.9.9,0,0,0-1-1h-.8ZM60.5,50.1H62c.48,0,1.77,0,1.77,1.56a1.49,1.49,0,0,1-1.66,1.56h-.86v2.26H60.5Z" transform="translate(-3.84 -3.64)"/><path d="M65,52.52h.7c.43,0,1.18,0,1.18-1,0-.54-.37-.86-1-.86H65Zm-.7-2.42h1.88c.92,0,1.51.48,1.51,1.34a1.23,1.23,0,0,1-.92,1.35h0a.88.88,0,0,1,.81.91l.06.92c0,.59.16.75.32.86h-.86a2.24,2.24,0,0,1-.22-.75l0-.81c-.06-.75-.49-.75-.86-.75H65v2.36h-.7Z" transform="translate(-3.84 -3.64)"/><polygon points="64.84 46.46 67.86 46.46 67.86 47.05 65.54 47.05 65.54 48.72 67.69 48.72 67.69 49.31 65.54 49.31 65.54 51.25 67.96 51.25 67.96 51.84 64.84 51.84 64.84 46.46"/><path d="M73.36,52.68h.86a.92.92,0,0,0,1-1,.9.9,0,0,0-1-1h-.81Zm-.7-2.58h1.51c.49,0,1.78,0,1.78,1.56a1.5,1.5,0,0,1-1.67,1.56h-.86v2.26h-.7V50.1Z" transform="translate(-3.84 -3.64)"/><path d="M76.86,53.43h1.56l-.75-2.58h0Zm.38-3.33h1l1.56,5.33H79L78.58,54H76.75l-.43,1.46h-.75Z" transform="translate(-3.84 -3.64)"/><path d="M81.06,52.52h.7c.43,0,1.18,0,1.18-1,0-.54-.37-.86-1-.86h-.86Zm-.7-2.42h1.88c.92,0,1.51.48,1.51,1.34a1.22,1.22,0,0,1-.91,1.35h0a.88.88,0,0,1,.8.91l.06.92c0,.59.16.75.32.86h-.86a2.24,2.24,0,0,1-.22-.75l0-.81c0-.75-.49-.75-.86-.75h-1v2.36h-.7Z" transform="translate(-3.84 -3.64)"/><polygon points="80.93 46.46 83.95 46.46 83.95 47.05 81.69 47.05 81.69 48.72 83.84 48.72 83.84 49.31 81.69 49.31 81.69 51.25 84.05 51.25 84.05 51.84 80.93 51.84 80.93 46.46"/><path d="M89.56,54.94h.76c1.23,0,1.39-1.18,1.39-2.15s0-2.15-1.39-2.15h-.76Zm-.75-4.84h1.56c1.83,0,2,1.18,2,2.69,0,1.34-.37,2.69-1.93,2.69H88.86V50.1Z" transform="translate(-3.84 -3.64)"/><polygon points="89.27 46.46 90.19 46.46 92.13 50.93 92.13 50.93 92.13 46.46 92.88 46.46 92.88 51.84 91.86 51.84 90.03 47.48 89.97 47.48 89.97 51.84 89.27 51.84 89.27 46.46"/><polygon points="94.01 46.46 97.02 46.46 97.02 47.05 94.71 47.05 94.71 48.72 96.86 48.72 96.86 49.31 94.71 49.31 94.71 51.25 97.08 51.25 97.08 51.84 94.01 51.84 94.01 46.46"/><path d="M104.25,51.5c0-.54-.21-1-.91-1a.85.85,0,0,0-1,.86c0,1.51,2.74.59,2.74,2.58a1.6,1.6,0,0,1-1.82,1.62c-1.35,0-1.78-.65-1.78-1.78h.7c0,.59.05,1.24,1.08,1.24a1,1,0,0,0,1-1c0-1.51-2.75-.65-2.75-2.58,0-.49.22-1.46,1.73-1.46,1.13,0,1.61.49,1.61,1.51h-.65Z" transform="translate(-3.84 -3.64)"/><path d="M108.56,51.5c0-.54-.22-1-.92-1a.84.84,0,0,0-1,.86c0,1.51,2.74.59,2.74,2.58a1.61,1.61,0,0,1-1.83,1.62c-1.34,0-1.78-.65-1.78-1.78h.7c0,.59.06,1.24,1.08,1.24a1,1,0,0,0,1-1c0-1.51-2.74-.65-2.74-2.58,0-.49.21-1.46,1.72-1.46,1.13,0,1.61.49,1.61,1.51h-.64Z" transform="translate(-3.84 -3.64)"/><path d="M116,53.65c-.05,1-.48,1.94-1.78,1.94-1.66,0-1.88-1.46-1.88-2.8s.27-2.8,1.88-2.8A1.53,1.53,0,0,1,116,51.66h-.76c0-.59-.21-1.13-1-1.13-1,0-1.13,1-1.13,2.26s.11,2.26,1.13,2.26c.86,0,1-.75,1-1.4Z" transform="translate(-3.84 -3.64)"/><path d="M117.6,52.79c0,1.24.11,2.26,1.13,2.26s1.13-1,1.13-2.26-.11-2.26-1.13-2.26-1.13,1-1.13,2.26m3,0c0,1.34-.27,2.8-1.88,2.8s-1.88-1.46-1.88-2.8.27-2.8,1.88-2.8,1.88,1.45,1.88,2.8" transform="translate(-3.84 -3.64)"/><path d="M122.44,53.43H124l-.75-2.58h0Zm.38-3.33h1l1.56,5.33h-.75L124.17,54h-1.83l-.49,1.51h-.75Z" transform="translate(-3.84 -3.64)"/><polygon points="122.1 46.46 122.8 46.46 122.8 51.25 125.17 51.25 125.17 51.84 122.1 51.84 122.1 46.46"/><rect x="125.92" y="46.46" width="0.7" height="5.33"/><polygon points="129.53 51.84 128.83 51.84 128.83 47.05 127.38 47.05 127.38 46.46 130.98 46.46 130.98 47.05 129.53 47.05 129.53 51.84"/><rect x="131.73" y="46.46" width="0.7" height="5.33"/><path d="M138.1,52.79c0,1.24.11,2.26,1.13,2.26s1.13-1,1.13-2.26-.1-2.26-1.13-2.26-1.13,1-1.13,2.26m3,0c0,1.34-.27,2.8-1.89,2.8s-1.88-1.46-1.88-2.8.27-2.8,1.88-2.8,1.89,1.45,1.89,2.8" transform="translate(-3.84 -3.64)"/><polygon points="138.35 46.46 139.27 46.46 141.21 50.93 141.21 50.93 141.21 46.46 141.91 46.46 141.91 51.84 140.94 51.84 139.05 47.48 139.05 47.48 139.05 51.84 138.35 51.84 138.35 46.46"/><path class="cls-1" d="M54,61.77,41.12,69.32c-.3-.18-.6-.36-.84-.54a133.22,133.22,0,0,1-12.47-9C20.62,53.91,14,47.2,9,39.29c-2.27-3.6-5.15-8.15-4.79-12.53.3-3.23,1.74-6.47,5.21-7.13a8.22,8.22,0,0,1,4.5.36c7.55,3.36,16.54,2.22,16.54,2.22-.24,1.86-.06,4.13-1.68,5.39A8.64,8.64,0,0,1,23,29a20.51,20.51,0,0,1-4.26-1.26c-5-1.38-3,2.22-3,2.22C30.21,56.19,54,61.77,54,61.77" transform="translate(-3.84 -3.64)"/><path class="cls-1" d="M50.11,15l-3.66,8.69-4.79-.24,2.22-11.75c.06-.06,4.79.24,6.23,3.3" transform="translate(-3.84 -3.64)"/><path class="cls-1" d="M41.66,26.16l6.47,5.64S40.28,43.85,35.55,48.88L29.61,43s8.39-7.56,12-16.85" transform="translate(-3.84 -3.64)"/><path class="cls-1" d="M42.5,8.54,39.14,25.39,33,25.09c.36-5.88.42-11.81,1.08-17.68a5.75,5.75,0,0,1,.18-.9c.18-.36.48-.42,1.14-.48a10.61,10.61,0,0,1,2.39,0A5.84,5.84,0,0,1,42.5,8.54" transform="translate(-3.84 -3.64)"/><path class="cls-1" d="M31.05,4.05c.24.06-.24,6.71-.24,7.19-.12,2.82-.12,5.69-.3,8.51-1.44-.06-2.88.18-4.31.12-.78-.06-3.9,0-4.38-.54-.18-.24-.06-1.26-.06-1.56-.06-1.67-.06-3.29-.12-5-.06-2.52-.12-5-.12-7.55a12.42,12.42,0,0,1,9.53-1.2" transform="translate(-3.84 -3.64)"/><path class="cls-1" d="M26,62.07l-5.88,7.55c-7-1.08-16.24-7.55-16.24-7.55,5.87-1.68,14.56-7.32,14.56-7.32C19.78,57,26,62.07,26,62.07" transform="translate(-3.84 -3.64)"/><path class="cls-1" d="M18.94,6.57l.3,12.34s-5.33,0-7-1.38L10.85,8.24a15.39,15.39,0,0,1,8.09-1.67" transform="translate(-3.84 -3.64)"/><rect x="56.66" y="2.23" width="6.03" height="32.29"/><polygon points="75.71 7.34 67.1 7.34 67.1 2.23 90.4 2.23 90.4 7.34 81.74 7.34 81.74 34.57 75.71 34.57 75.71 7.34"/><path d="M104.63,20.83h2.1c3,0,5.76-1.08,5.76-4.79S109.85,11,106.73,11h-2.1Zm-6-15h7.65c6.56,0,12.53,2,12.53,9.74,0,7.53-5.11,10.28-11.62,10.28h-2.53V38.16h-6Z" transform="translate(-3.84 -3.64)"/><path d="M146.07,37.73a30.09,30.09,0,0,1-6.84,1c-9.74,0-16.52-5.22-16.52-16.15,0-11.08,6.3-17.27,16.52-17.27a19.16,19.16,0,0,1,6.84,1.34l-.43,5.44a11.62,11.62,0,0,0-6.51-1.72c-6.19,0-10.12,5.11-10.12,11.73s3.82,11.52,10.22,11.52a15.65,15.65,0,0,0,6.62-1.35Z" transform="translate(-3.84 -3.64)"/><path d="M62,69.64l-2.2-9.24h1.91l1.39,6.35,1.69-6.35H67l1.62,6.45L70,60.4H71.9l-2.25,9.24h-2l-1.84-6.91L64,69.64Z" transform="translate(-3.84 -3.64)"/><path d="M72.43,69.64V60.4h6.85V62h-5V64h4.64v1.56H74.29v2.51h5.17v1.56Z" transform="translate(-3.84 -3.64)"/><path d="M80.14,66.63,82,66.46a2.19,2.19,0,0,0,.66,1.34,2,2,0,0,0,1.35.43,2.1,2.1,0,0,0,1.36-.38,1.15,1.15,0,0,0,.46-.9.87.87,0,0,0-.19-.55,1.5,1.5,0,0,0-.67-.4c-.22-.08-.72-.21-1.5-.41a5.19,5.19,0,0,1-2.11-.91,2.43,2.43,0,0,1-.45-3.18A2.59,2.59,0,0,1,82,60.56a4.7,4.7,0,0,1,1.82-.32,3.9,3.9,0,0,1,2.62.76,2.72,2.72,0,0,1,.92,2l-1.87.08a1.58,1.58,0,0,0-.51-1,1.87,1.87,0,0,0-1.18-.32,2.18,2.18,0,0,0-1.28.34.68.68,0,0,0-.29.57.69.69,0,0,0,.28.56,4.66,4.66,0,0,0,1.71.62,9.07,9.07,0,0,1,2,.67,2.6,2.6,0,0,1,1,.94A2.76,2.76,0,0,1,87.66,67,2.75,2.75,0,0,1,86,69.47a5.37,5.37,0,0,1-2,.33A4,4,0,0,1,81.26,69,3.53,3.53,0,0,1,80.14,66.63Z" transform="translate(-3.84 -3.64)"/><path d="M90.88,69.64V62H88.14V60.4h7.34V62H92.75v7.68Z" transform="translate(-3.84 -3.64)"/><path d="M107.28,69.64h-2l-.81-2.1h-3.69l-.77,2.1H98l3.6-9.24h2ZM103.84,66l-1.27-3.43L101.32,66Z" transform="translate(-3.84 -3.64)"/><path d="M107.86,69.64V60.4h6.33V62h-4.47v2.19h3.86v1.56h-3.86v3.93Z" transform="translate(-3.84 -3.64)"/><path d="M115.31,69.64V60.4h3.93a6.54,6.54,0,0,1,2.15.25,2.11,2.11,0,0,1,1.08.88,2.67,2.67,0,0,1,.4,1.46,2.48,2.48,0,0,1-.61,1.72,3,3,0,0,1-1.83.85,4.09,4.09,0,0,1,1,.78,10.16,10.16,0,0,1,1.06,1.5l1.13,1.8h-2.23l-1.35-2a14.87,14.87,0,0,0-1-1.36,1.36,1.36,0,0,0-.56-.38,3,3,0,0,0-.94-.11h-.38v3.86Zm1.87-5.33h1.38a6.85,6.85,0,0,0,1.68-.12,1,1,0,0,0,.52-.39,1.15,1.15,0,0,0,.19-.69,1.12,1.12,0,0,0-.25-.76A1.15,1.15,0,0,0,120,62c-.15,0-.61,0-1.37,0h-1.45Z" transform="translate(-3.84 -3.64)"/><path d="M124.15,69.64V60.4H126v9.24Z" transform="translate(-3.84 -3.64)"/><path d="M133.28,66.24l1.81.58a4.11,4.11,0,0,1-1.38,2.24,4.35,4.35,0,0,1-5.49-.52A4.81,4.81,0,0,1,127,65.1a5.06,5.06,0,0,1,1.19-3.58,4.06,4.06,0,0,1,3.13-1.28,3.84,3.84,0,0,1,2.76,1,3.67,3.67,0,0,1,.95,1.7l-1.85.45a2,2,0,0,0-.69-1.14,1.92,1.92,0,0,0-1.26-.42,2.11,2.11,0,0,0-1.67.74A3.65,3.65,0,0,0,129,65a3.89,3.89,0,0,0,.63,2.5,2,2,0,0,0,1.64.74,1.84,1.84,0,0,0,1.28-.47A2.71,2.71,0,0,0,133.28,66.24Z" transform="translate(-3.84 -3.64)"/><path d="M144.6,69.64h-2l-.81-2.1h-3.69l-.76,2.1h-2l3.6-9.24h2ZM141.17,66l-1.28-3.43L138.64,66Z" transform="translate(-3.84 -3.64)"/></svg>